<svg xmlns="http://www.w3.org/2000/svg" viewBox="0 0 892.67 951.84"><defs><style>.cls-1{fill:#fff;}</style></defs><g id="Layer_2" data-name="Layer 2"><g id="Layer_1-2" data-name="Layer 1"><path class="cls-1" d="M322.81,951.84h-55V869.71H81.7V648.63H0V592.72H81.38V548.64H.07V493.56H81.49v-43.9H.15V393.58H81.41v-43.9H.05V294.6H81.88V83.69H268V0h54.91V83.38H367V.07h56.09V83.48H467V.15h56.08V83.41h43.08V.05H622V83.87H818V295h74.7v54.91H818.29v44.08H892.6V450H818.18v43.9h74.34V549H818.26v44.08h74.36V649H817.79V869.89H621.87v82h-56V870.18h-43v81.66h-56V870.18h-44v81.66h-56V870.18h-44Zm218-442.13H572.1V632.53h30.45V448.17H571.71v30.72H540.94v31l-30-.18V478.59H479.69V448.2H449.12V632.46h31V509.52h31v30.88h29.72ZM332.17,469.55V364h51.71v22.4h44.95c0-15.34.29-30.33-.22-45.29-.12-3.58-2.33-7.53-4.64-10.48-4.65-5.95-11.53-7.83-18.83-7.84q-44.25-.1-88.49,0a82.94,82.94,0,0,0-11.77,1c-10.46,1.52-17.08,9.35-17.08,19.92v146c0,11.79,8.28,20.09,20.07,20.09h101c9.2,0,16.16-5.16,19.05-14.07a9,9,0,0,0,.85-2.26c.05-15.43,0-30.87,0-46.31H383.7v22.4Zm460.37,375V649.06H750.83V795H622.12v49.58ZM107,844.47H267.55V794.76h-116V649.06H107ZM751.07,154.65V294.53H792.6V109.12H622.12v45.53ZM107,294.53h44.88V154.59H267.55V109.06H107ZM410.62,12h-31.5v177.4h31.5Zm99.87,177.54V12H479.11V189.55Zm370.2,415.6H703.29v31.4h177.4ZM609.51,189.55V12H578.13V189.55ZM703.24,406v31.4H880.65V406ZM379,939.43h31.58V762.14H379ZM479.2,762V939.6h31.38V762ZM609.51,939.62V762.06H578.13V939.62ZM12,636.46h176.4v-31.4H12Zm176.7-230.37H12.11v31.3H188.68ZM280.16,12V189.53h30.38V12Zm423,325.54H880.6V307.13H703.12ZM703.29,506v30.57H880.6V506ZM310.47,939.6V762.22H280.05V939.6ZM12,337.4H188.53V307.07H12ZM188.56,506.15H12.16v30.38h176.4Zm234.62,288.9v49.38h43.4V795.05Zm-56.72,49.56V795.22H323.08v49.39Zm156.61-.14h42.39V795.09H523.07ZM466.62,109.12H423.23v45.37h43.39ZM323.17,109v45.38h43.38V109ZM151.42,493.57V450.19H107v43.38ZM107,393.43h44.39V350.05H107ZM107.12,549V592.4h44.39V549Zm458.5-439.93H523.23v45.43h42.39ZM792.68,350.14H751.29v43.38h41.39Zm-.13,143.43V450.19H751.16v43.38Zm.17,55.62H751.16V592.5h41.56Z"/><path d="M332.17,469.55H383.7v-22.4h45.09c0,15.44,0,30.88,0,46.31a9,9,0,0,1-.85,2.26c-2.89,8.91-9.85,14.07-19.05,14.07h-101c-11.79,0-20.07-8.3-20.07-20.09v-146c0-10.57,6.62-18.4,17.08-19.92a82.94,82.94,0,0,1,11.77-1q44.25-.12,88.49,0c7.3,0,14.18,1.89,18.83,7.84,2.31,3,4.52,6.9,4.64,10.48.51,15,.22,29.95.22,45.29H383.88V364H332.17Z"/><path d="M792.54,844.59H622.12V795H750.83v-146h41.71Z"/><path d="M107,844.47V649.06h44.59v145.7h116v49.71Z"/><path d="M751.07,154.65h-129V109.12H792.6V294.53H751.07Z"/><path d="M107,294.53V109.06h160.6v45.53H151.83V294.53Z"/><path d="M511.08,509.52h-31V632.46h-31V448.2h30.57v30.39H511c0,10.6,0,20.84,0,31.09Z"/><path d="M540.94,509.85v-31h30.77V448.17h30.84V632.53H572.1V509.71H540.79Z"/><path d="M410.62,12v177.4h-31.5V12Z"/><path d="M510.49,189.55H479.11V12h31.38Z"/><path d="M880.69,605.15v31.4H703.29v-31.4Z"/><path d="M609.51,189.55H578.13V12h31.38Z"/><path d="M703.24,406H880.65v31.4H703.24Z"/><path d="M379,939.43V762.14h31.58V939.43Z"/><path d="M479.2,762h31.38V939.6H479.2Z"/><path d="M609.51,939.62H578.13V762.06h31.38Z"/><path d="M12,636.46v-31.4h176.4v31.4Z"/><path d="M188.68,406.09v31.3H12.11v-31.3Z"/><path d="M280.16,12h30.38V189.53H280.16Z"/><path d="M703.12,337.51V307.13H880.6v30.38Z"/><path d="M703.29,506H880.6v30.57H703.29Z"/><path d="M310.47,939.6H280.05V762.22h30.42Z"/><path d="M12,337.4V307.07H188.53V337.4Z"/><path d="M188.56,506.15v30.38H12.16V506.15Z"/><path d="M423.18,795.05h43.4v49.38h-43.4Z"/><path d="M366.46,844.61H323.08V795.22h43.38Z"/><path d="M523.07,844.47V795.09h42.39v49.38Z"/><path d="M466.62,109.12v45.37H423.23V109.12Z"/><path d="M323.17,109h43.38v45.38H323.17Z"/><path d="M151.42,493.57H107V450.19h44.39Z"/><path d="M107,393.43V350.05h44.39v43.38Z"/><path d="M107.12,549h44.39V592.4H107.12Z"/><path d="M565.62,109.09v45.43H523.23V109.09Z"/><path d="M792.68,350.14v43.38H751.29V350.14Z"/><path d="M792.55,493.57H751.16V450.19h41.39Z"/><path d="M792.72,549.19V592.5H751.16V549.19Z"/><path d="M540.79,509.71v30.7H511.07c0-10.17,0-20.52,0-30.89l-.14.16,30,.17Z"/></g></g></svg>