<?xml version="1.0" encoding="UTF-8" standalone="no"?>
<!-- Created with Inkscape (http://www.inkscape.org/) -->

<svg
   version="1.1"
   id="svg1"
   width="317.08099"
   height="315.56351"
   viewBox="0 0 317.081 315.5635"
   sodipodi:docname="minerva_archive.eps"
   xmlns:inkscape="http://www.inkscape.org/namespaces/inkscape"
   xmlns:sodipodi="http://sodipodi.sourceforge.net/DTD/sodipodi-0.dtd"
   xmlns="http://www.w3.org/2000/svg"
   xmlns:svg="http://www.w3.org/2000/svg">
  <defs
     id="defs1" />
  <sodipodi:namedview
     id="namedview1"
     pagecolor="#ffffff"
     bordercolor="#000000"
     borderopacity="0.25"
     inkscape:showpageshadow="2"
     inkscape:pageopacity="0.0"
     inkscape:pagecheckerboard="0"
     inkscape:deskcolor="#d1d1d1">
    <inkscape:page
       x="0"
       y="0"
       width="317.08099"
       height="315.56351"
       id="page2"
       margin="0"
       bleed="0" />
  </sodipodi:namedview>
  <g
     id="g1"
     inkscape:groupmode="layer"
     inkscape:label="1"
     transform="translate(-1.4963599,-0.45733793)">
    <path
       id="path1"
       d="M 93.9805,9.84375 H 2306.57 c 45.52,0 82.76,37.23825 82.76,82.75785 V 2293.82 c 0,45.52 -37.24,82.75 -82.76,82.75 H 93.9805 c -45.5157,0 -82.7578,-37.23 -82.7578,-82.75 V 92.6016 c 0,-45.5196 37.2421,-82.75785 82.7578,-82.75785"
       style="fill:#9f7aea;fill-opacity:1;fill-rule:evenodd;stroke:none"
       transform="matrix(0.13333333,0,0,-0.13333333,0,317.33333)" />
    <path
       id="path2"
       d="m 169.859,222.531 h 64.149 v -64.148 h -64.149 z m 0,1316.949 h 64.149 v -64.15 h -64.149 z m -64.148,32.07 V 126.309 c 0,-40.9106 43.871,-32.0785 84.191,-32.0785 38.758,0.0078 77.516,0 116.274,0 -4.946,10.3085 -8.02,24.4415 -8.02,40.0975 v 721.68 c 0,62.226 42.02,104.242 104.242,104.242 h 712.822 c 2.55,8.75 4.59,17.484 4.59,25.457 0,44.423 -0.33,64.453 -12.77,103.743 -4.88,-0.59 -9.89,-0.9 -15.04,-0.9 H 402.398 c -61.328,0 -104.242,42.91 -104.242,104.24 v 410.84 H 137.781 c -19.394,0 -32.07,-12.68 -32.07,-32.08"
       style="fill:#ffffff;fill-opacity:1;fill-rule:evenodd;stroke:none"
       transform="matrix(0.13333333,0,0,-0.13333333,0,317.33333)" />
    <path
       id="path3"
       d="m 490.605,318.758 h 346.368 c 9.578,13.594 19.984,26.472 31.019,38.773 -3.597,11.016 -4.176,23.09 -1.344,35.231 3.985,17.101 11.122,35.824 20.457,54.293 h -396.5 v 64.148 h 439.774 c 9.781,10.938 20.117,20.492 30.633,27.93 67.448,47.695 85.428,46.515 163.368,55.121 21.78,2.402 45.55,9.637 67.04,14.59 32.13,7.402 65.38,12.859 98.35,8.261 11.42,-1.593 23.08,-2.261 34.78,-2.503 v 32.496 c -4.01,0.812 -7.98,2.015 -11.89,3.617 -13.58,-0.102 -27,4.219 -38.76,12.844 -16.09,11.785 -26.85,20.644 -33.39,40.906 -3.22,9.973 -2.9,17.547 -4.6,27.105 -2.3,12.868 -3.1,23.184 -3.31,35.203 -13.72,10.977 -24.19,23.665 -35.35,37.985 -2.38,3.047 -9.14,12.148 -12.66,14.609 -17.69,4.203 -31.42,14.258 -40.79,29.875 -2.12,3.531 -3.88,7.121 -5.28,10.774 -4.82,2.746 -9.37,6.168 -13.57,10.238 -7.78,7.535 -13.37,16.32 -16.62,25.848 H 394.383 c -19.395,0 -32.074,-12.68 -32.074,-32.075 V 126.309 c 0,-19.395 12.679,-32.0785 32.074,-32.0785 h 545.523 c -3.801,4.375 -7.558,8.8865 -11.289,13.6135 -12.617,15.984 -26.539,30.57 -37.941,47.597 -4.153,6.204 -7.164,12.77 -9.028,19.524 -24.636,16.215 -39.097,42.859 -53.238,69.57 -1.75,3.301 -3.199,6.668 -4.359,10.074 H 490.605 Z m 0,384.894 H 1196.25 V 639.504 H 490.605 v 64.148"
       style="fill:#ffffff;fill-opacity:1;fill-rule:evenodd;stroke:none"
       transform="matrix(0.13333333,0,0,-0.13333333,0,317.33333)" />
    <path
       id="path4"
       d="m 811.352,1252.93 v 248.58 c 0,19.82 16.269,36.08 36.086,36.08 h 128.796 c -2.289,6.73 -3.461,13.95 -3.461,21.55 0,14.09 0.668,28.32 1.829,42.6 H 554.754 v -416.97 c 0,-19.39 12.684,-32.07 32.078,-32.07 h 497.678 c -5.51,16.2 -10.08,32.53 -12.28,50.24 -7.61,5.64 -13.86,12.94 -18.33,21.49 -6.11,-4.75 -13.76,-7.58 -22.03,-7.58 H 847.438 c -19.817,0 -36.086,16.26 -36.086,36.08"
       style="fill:#ffffff;fill-opacity:1;fill-rule:evenodd;stroke:none"
       transform="matrix(0.13333333,0,0,-0.13333333,0,317.33333)" />
    <path
       id="path5"
       d="m 362.309,1184.77 c 0,-44.81 66.144,-32.07 136.316,-32.07 -4.945,10.3 -8.02,24.43 -8.02,40.09 v 410.84 H 362.309 v -418.86"
       style="fill:#ffffff;fill-opacity:1;fill-rule:evenodd;stroke:none"
       transform="matrix(0.13333333,0,0,-0.13333333,0,317.33333)" />
    <path
       id="path6"
       d="M 875.504,1281 H 1003.8 v 67.36 c -0.67,3.02 -1.13,6.14 -1.4,9.34 -1.58,19.01 -11.787,44.14 -15.763,64.05 -3.895,19.52 -6.328,35.13 -7.66,51.7 H 875.504 V 1281"
       style="fill:#ffffff;fill-opacity:1;fill-rule:evenodd;stroke:none"
       transform="matrix(0.13333333,0,0,-0.13333333,0,317.33333)" />
    <path
       id="path7"
       d="m 5.8605344,-8.6841562 v -0.46875 l -1.875,-2.6601558 v 10.91015575 c 0,0.24609375 -0.082031,0.45703125 -0.2578125,0.6328125 C 3.5519406,-0.0943125 3.3292844,-5.625e-4 3.0831906,-5.625e-4 c -0.234375,0 -0.4570312,-0.09375 -0.6328125,-0.26953125 C 2.2745969,-0.445875 2.1808469,-0.6568125 2.1808469,-0.90290625 V -14.309156 h 2.3203125 l 2.25,3.246094 2.2851562,-3.246094 h 2.2968754 v 13.40624975 c 0,0.24609375 -0.09375,0.45703125 -0.269532,0.6328125 -0.199218,0.17578125 -0.410156,0.26953125 -0.65625,0.26953125 -0.246093,0 -0.4687496,-0.09375 -0.6445309,-0.26953125 C 9.5870969,-0.445875 9.5050656,-0.6568125 9.5050656,-0.90290625 V -11.766187 l -1.828125,2.5781245 v 0.5039063 c 0,0.2460937 -0.09375,0.4570312 -0.2695312,0.6328125 -0.1757813,0.1757812 -0.3984375,0.2695312 -0.6445313,0.2695312 -0.234375,0 -0.4570312,-0.09375 -0.6328125,-0.2695312 C 5.9542844,-8.227125 5.8605344,-8.4380625 5.8605344,-8.6841562 Z M 16.442566,-14.309156 h 7.324218 c 0.234375,0 0.433594,0.09375 0.632813,0.269531 0.175781,0.175781 0.269531,0.398438 0.269531,0.632813 0,0.246093 -0.09375,0.46875 -0.269531,0.644531 -0.175781,0.199219 -0.398438,0.28125 -0.632813,0.28125 H 21.001159 V -1.80525 h 2.765625 c 0.234375,0 0.457032,0.082031 0.632813,0.2578125 0.175781,0.1757813 0.269531,0.3984375 0.269531,0.64453125 0,0.24609375 -0.09375,0.45703125 -0.269531,0.6328125 -0.175781,0.17578125 -0.398438,0.26953125 -0.632813,0.26953125 h -7.324218 c -0.246094,0 -0.457032,-0.09375 -0.632813,-0.26953125 -0.175781,-0.17578125 -0.269531,-0.38671875 -0.269531,-0.6328125 0,-0.24609375 0.09375,-0.46874995 0.269531,-0.64453125 0.175781,-0.1757812 0.386719,-0.2578125 0.632813,-0.2578125 h 2.753906 v -10.675781 h -2.753906 c -0.246094,0 -0.457032,-0.08203 -0.632813,-0.257813 -0.175781,-0.175781 -0.269531,-0.398437 -0.269531,-0.644531 0,-0.257812 0.09375,-0.480469 0.269531,-0.65625 0.175781,-0.175781 0.386719,-0.269531 0.632813,-0.269531 z m 21.518554,0.925781 V -5.625e-4 H 35.535339 L 30.636902,-11.109937 v 10.20703075 c 0,0.24609375 -0.08203,0.45703125 -0.257813,0.6328125 -0.175781,0.17578125 -0.398437,0.26953125 -0.644531,0.26953125 -0.234375,0 -0.457031,-0.09375 -0.632813,-0.26953125 C 28.925964,-0.445875 28.832214,-0.6568125 28.832214,-0.90290625 V -14.309156 h 2.402344 l 4.898437,11.0859373 V -13.383375 c 0,-0.234375 0.08203,-0.457031 0.28125,-0.65625 0.175782,-0.175781 0.398438,-0.269531 0.644532,-0.269531 0.234375,0 0.457031,0.09375 0.632812,0.269531 0.175781,0.175781 0.269531,0.398438 0.269531,0.65625 z m 12.410157,0.902344 h -6.398438 v 4.4179685 h 2.753906 c 0.246094,0 0.46875,0.082031 0.644532,0.2578125 0.175781,0.1757813 0.257812,0.3984375 0.257812,0.6445313 0,0.2578125 -0.08203,0.4804687 -0.257812,0.65625 -0.175782,0.1757812 -0.398438,0.2695312 -0.644532,0.2695312 H 43.972839 V -1.80525 h 6.421875 c 0.234375,0 0.457031,0.082031 0.632813,0.2578125 0.175781,0.1757813 0.269531,0.3984375 0.269531,0.64453125 0,0.24609375 -0.09375,0.45703125 -0.269531,0.6328125 -0.199219,0.17578125 -0.421875,0.26953125 -0.65625,0.26953125 H 42.168152 V -14.309156 h 8.203125 c 0.234375,0 0.457031,0.09375 0.65625,0.269531 0.175781,0.199219 0.269531,0.421875 0.269531,0.65625 0,0.246094 -0.09375,0.46875 -0.269531,0.644531 -0.199219,0.175782 -0.421875,0.257813 -0.65625,0.257813 z m 5.135742,11.57812475 V -14.309156 h 6.386718 c 0.75,0 1.371094,0.269531 1.921875,0.820312 0.527344,0.527344 0.796875,1.171875 0.796875,1.910157 v 1.042968 c 0,0.7500003 -0.269531,1.3828128 -0.796875,1.933594 -0.527343,0.5390625 -1.171875,0.796875 -1.921875,0.796875 h -1.136718 l 3.679687,6.3515625 c 0.105469,0.1757813 0.175781,0.375 0.175781,0.55078125 0,0.24609375 -0.09375,0.45703125 -0.292968,0.6328125 -0.175782,0.17578125 -0.398438,0.26953125 -0.632813,0.26953125 -0.351562,0 -0.621094,-0.15234375 -0.820312,-0.48046875 L 58.635925,-7.80525 h -1.300781 v 6.90234375 c 0,0.24609375 -0.09375,0.45703125 -0.269532,0.6328125 -0.199218,0.17578125 -0.410156,0.26953125 -0.65625,0.26953125 -0.246093,0 -0.46875,-0.09375 -0.644531,-0.26953125 C 55.58905,-0.445875 55.507019,-0.6568125 55.507019,-0.90290625 Z m 1.828125,-8.70703125 h 4.558593 c 0.269532,0 0.46875,-0.09375 0.644532,-0.2695312 0.175781,-0.1757813 0.257812,-0.3984373 0.257812,-0.6328123 v -1.066406 c 0,-0.234375 -0.08203,-0.457032 -0.257812,-0.632813 -0.175782,-0.175781 -0.375,-0.269531 -0.644532,-0.269531 h -4.558593 z m 20.613281,-3.7734375 v 3.328125 l -3.691406,9.375 c -0.175782,0.45703125 -0.480469,0.6796875 -0.878907,0.6796875 -0.421875,0 -0.726562,-0.22265625 -0.902343,-0.6796875 l -3.65625,-9.375 v -3.328125 c 0,-0.257812 0.08203,-0.480469 0.257812,-0.65625 0.175781,-0.175781 0.398438,-0.269531 0.644531,-0.269531 0.269532,0 0.480469,0.09375 0.65625,0.269531 0.175782,0.175781 0.269532,0.398438 0.269532,0.65625 v 2.929688 l 2.730468,7.0312495 2.753907,-6.9843745 v -2.976563 c 0,-0.257812 0.09375,-0.480469 0.269531,-0.65625 0.175781,-0.175781 0.398437,-0.269531 0.632812,-0.269531 0.246094,0 0.46875,0.09375 0.644532,0.269531 0.175781,0.175781 0.269531,0.398438 0.269531,0.65625 z m 4.209961,12.1289063 3.65625,-12.3632813 c 0.152344,-0.46875 0.445312,-0.691406 0.902344,-0.691406 0.445312,0 0.703125,0.199219 0.820312,0.574219 l 3.632813,12.5624995 c 0.02344,0.09375 0.04687,0.17578125 0.04687,0.26953125 0,0.24609375 -0.09375,0.45703125 -0.269532,0.6328125 -0.152343,0.17578125 -0.351562,0.26953125 -0.574218,0.26953125 -0.480469,0 -0.785157,-0.22265625 -0.902344,-0.65625 l -0.726563,-2.4492187 h -4.160156 l -0.773437,2.62499995 c -0.02344,0.10546875 -0.117188,0.2109375 -0.292969,0.328125 -0.152344,0.10546875 -0.328125,0.15234375 -0.503906,0.15234375 -0.257813,0 -0.480469,-0.09375 -0.65625,-0.26953125 -0.175782,-0.17578125 -0.269532,-0.38671875 -0.269532,-0.65625 0,-0.10546875 0.02344,-0.22265625 0.07031,-0.32812495 z m 4.535156,-8.8593753 -1.558594,5.1796878 h 3.082032 z m 0,0"
       style="fill:#231f20;fill-opacity:1;fill-rule:nonzero;stroke:none"
       aria-label="MINERVA"
       transform="matrix(1.3333333,0,0,1.3333333,13.506267,76.032)" />
    <path
       id="path8"
       d="m 10.091214,-6.5620625 v 0.6210938 c 0,0.328125 -0.1640624,0.5507812 -0.4687499,0.75 l -6.1875,3.65625 c -0.1757813,0.1171875 -0.3515625,0.1757812 -0.5039063,0.1757812 -0.2109375,0 -0.375,-0.082031 -0.5273437,-0.234375 -0.1757813,-0.1523437 -0.2578125,-0.3398437 -0.2578125,-0.5742187 0,-0.28125 0.1171875,-0.515625 0.3632812,-0.6445313 L 8.2865266,-6.2456562 2.5091828,-9.6675312 C 2.2630891,-9.7964375 2.1459016,-10.030812 2.1459016,-10.3355 c 0,-0.222656 0.082031,-0.421875 0.2578125,-0.550781 0.1523437,-0.152344 0.3164062,-0.234375 0.5273437,-0.234375 0.1523438,0 0.328125,0.05859 0.5039063,0.175781 l 6.1875,3.65625 c 0.3046875,0.1757813 0.4687499,0.421875 0.4687499,0.7265625 z m 3.46582,5.4726563 3.175782,-10.7578128 c 0.140625,-0.398437 0.386718,-0.597656 0.785156,-0.597656 0.386719,0 0.621094,0.175781 0.714844,0.503906 l 3.164062,10.9218753 c 0.01172,0.0820312 0.03516,0.1523437 0.03516,0.23437495 0,0.2109375 -0.08203,0.3984375 -0.234375,0.55078125 -0.128906,0.15234375 -0.304687,0.234375 -0.492187,0.234375 -0.421875,0 -0.691406,-0.1875 -0.785156,-0.57421875 L 19.287503,-2.7065937 h -3.632812 l -0.667969,2.2851562 c -0.01172,0.09375 -0.09375,0.1875 -0.246094,0.29296875 -0.140625,0.09375 -0.292969,0.12890625 -0.445312,0.12890625 -0.222657,0 -0.421875,-0.08203125 -0.574219,-0.234375 -0.152344,-0.15234375 -0.222656,-0.33984375 -0.222656,-0.57421875 0,-0.09375 0.01172,-0.1875 0.05859,-0.28124995 z m 3.949219,-7.7109375 -1.371094,4.5117187 h 2.683594 z m 7.605469,8.01562495 V -12.444875 h 5.554687 c 0.65625,0 1.195313,0.234375 1.675782,0.714844 0.457031,0.457031 0.691406,1.007812 0.691406,1.664062 v 0.902344 c 0,0.65625 -0.234375,1.2070313 -0.691406,1.6875 -0.46875,0.4570313 -1.019532,0.6914063 -1.675782,0.6914063 h -0.996093 l 3.199218,5.5195312 c 0.105469,0.1523438 0.164063,0.328125 0.164063,0.48046875 0,0.2109375 -0.08203,0.3984375 -0.257813,0.55078125 -0.152343,0.15234375 -0.339843,0.234375 -0.550781,0.234375 -0.304687,0 -0.539062,-0.12890625 -0.714844,-0.421875 l -3.679687,-6.3632812 h -1.125 v 5.99999995 c 0,0.2109375 -0.08203,0.3984375 -0.234375,0.55078125 -0.175781,0.15234375 -0.363281,0.234375 -0.574219,0.234375 -0.210937,0 -0.398437,-0.08203125 -0.550781,-0.234375 -0.164063,-0.15234375 -0.234375,-0.33984375 -0.234375,-0.55078125 z m 1.59375,-7.57031245 h 3.960937 c 0.234375,0 0.410157,-0.082031 0.5625,-0.234375 0.152344,-0.1523438 0.222657,-0.3398438 0.222657,-0.5507813 v -0.9257815 c 0,-0.210937 -0.07031,-0.398437 -0.222657,-0.550781 -0.152343,-0.152344 -0.328125,-0.234375 -0.5625,-0.234375 H 26.705472 Z M 40.97598,-1.569875 h 2.835937 c 0.210938,0 0.410156,0.070312 0.585938,0.2226563 0.152343,0.1640625 0.222656,0.35156245 0.222656,0.56249995 0,0.2109375 -0.07031,0.3984375 -0.222656,0.55078125 -0.175782,0.15234375 -0.375,0.234375 -0.585938,0.234375 H 40.88223 c -0.386719,0 -0.761719,-0.1171875 -1.171875,-0.36328125 C 39.311917,-0.59721875 39.042386,-0.86675 38.866605,-1.148 l -1.792969,-3.515625 c -0.257813,-0.515625 -0.363281,-1.03125 -0.363281,-1.546875 0,-0.5976562 0.105468,-1.0898437 0.339843,-1.5351562 l 1.816407,-3.4687498 c 0.199218,-0.328125 0.46875,-0.609375 0.832031,-0.867188 0.363281,-0.246093 0.726562,-0.363281 1.066406,-0.363281 h 3.105469 c 0.210937,0 0.410156,0.08203 0.5625,0.234375 0.152344,0.152344 0.222656,0.339844 0.222656,0.550781 0,0.210938 -0.07031,0.410157 -0.222656,0.5625 -0.152344,0.164063 -0.351563,0.246094 -0.5625,0.246094 h -3 c -0.257813,0 -0.46875,0.128906 -0.621094,0.445313 L 38.526761,-7.148 c -0.140625,0.2460938 -0.210938,0.5507813 -0.210938,0.9023438 0.02344,0.3632812 0.09375,0.6914062 0.234375,0.9726562 l 1.664063,3.1992188 c 0.152344,0.328125 0.398437,0.5039062 0.761719,0.5039062 z m 7.230468,0.78515625 V -11.659719 c 0,-0.210937 0.08203,-0.398437 0.234375,-0.550781 0.152344,-0.152344 0.339844,-0.234375 0.574219,-0.234375 0.210938,0 0.375,0.08203 0.550781,0.234375 0.152344,0.152344 0.234375,0.339844 0.234375,0.550781 v 4.6406253 h 4.769532 v -4.6406253 c 0,-0.210937 0.08203,-0.398437 0.234375,-0.550781 0.152343,-0.152344 0.339843,-0.234375 0.550781,-0.234375 0.210937,0 0.410156,0.08203 0.5625,0.234375 0.152344,0.152344 0.222656,0.339844 0.222656,0.574219 v 10.85156225 c 0,0.2109375 -0.07031,0.3984375 -0.222656,0.55078125 -0.175781,0.15234375 -0.351563,0.234375 -0.5625,0.234375 -0.222656,0 -0.398438,-0.08203125 -0.550781,-0.234375 C 54.651761,-0.38628125 54.56973,-0.57378125 54.56973,-0.78471875 V -5.4487812 h -4.769532 v 4.66406245 c 0,0.2109375 -0.08203,0.3984375 -0.234375,0.55078125 -0.175781,0.15234375 -0.363281,0.234375 -0.574218,0.234375 -0.210938,0 -0.398438,-0.08203125 -0.550782,-0.234375 -0.152343,-0.15234375 -0.234375,-0.33984375 -0.234375,-0.55078125 z M 60.604886,-12.444875 h 6.363281 c 0.210938,0 0.386719,0.08203 0.5625,0.234375 0.152344,0.152344 0.234375,0.339844 0.234375,0.550781 0,0.210938 -0.08203,0.410157 -0.234375,0.5625 -0.152344,0.164063 -0.351562,0.246094 -0.5625,0.246094 h -2.390625 v 9.28125 h 2.390625 c 0.210938,0 0.410156,0.070312 0.5625,0.2226563 0.152344,0.1640625 0.234375,0.35156245 0.234375,0.56249995 0,0.2109375 -0.08203,0.3984375 -0.234375,0.55078125 -0.152344,0.15234375 -0.351562,0.234375 -0.5625,0.234375 h -6.363281 c -0.210938,0 -0.398438,-0.08203125 -0.550781,-0.234375 -0.152344,-0.15234375 -0.234375,-0.33984375 -0.234375,-0.55078125 0,-0.2109375 0.08203,-0.39843745 0.234375,-0.56249995 0.152343,-0.1523438 0.339843,-0.2226563 0.550781,-0.2226563 h 2.402344 v -9.28125 h -2.402344 c -0.210938,0 -0.398438,-0.08203 -0.550781,-0.234375 -0.152344,-0.152344 -0.234375,-0.339844 -0.234375,-0.550781 0,-0.234375 0.08203,-0.421875 0.234375,-0.574219 0.152343,-0.152344 0.339843,-0.234375 0.550781,-0.234375 z m 18.74707,0.808594 v 2.894531 l -3.199219,8.14453125 C 76.000394,-0.1870625 75.730862,4.375e-4 75.391019,4.375e-4 c -0.375,0 -0.632813,-0.1875 -0.796875,-0.59765625 L 71.418362,-8.74175 v -2.894531 c 0,-0.234375 0.07031,-0.421875 0.234375,-0.574219 0.152344,-0.152344 0.339844,-0.234375 0.550782,-0.234375 0.234375,0 0.421875,0.08203 0.574218,0.234375 0.152344,0.152344 0.234375,0.339844 0.234375,0.574219 v 2.5546873 l 2.378907,6.1054687 2.390625,-6.0703125 v -2.5898435 c 0,-0.234375 0.08203,-0.421875 0.234375,-0.574219 0.152343,-0.152344 0.339843,-0.234375 0.550781,-0.234375 0.210937,0 0.398437,0.08203 0.5625,0.234375 0.152344,0.152344 0.222656,0.339844 0.222656,0.574219 z m 10.757813,0.785156 h -5.566407 v 3.8320313 h 2.402344 c 0.210938,0 0.398438,0.082031 0.550781,0.234375 0.152344,0.1523437 0.234375,0.3398437 0.234375,0.5507812 0,0.234375 -0.08203,0.421875 -0.234375,0.5742188 -0.152343,0.1523437 -0.339843,0.234375 -0.550781,0.234375 h -2.402344 v 3.8554687 h 5.578125 c 0.210938,0 0.410157,0.070312 0.5625,0.2226563 0.152344,0.1640625 0.234375,0.35156245 0.234375,0.56249995 0,0.2109375 -0.08203,0.3984375 -0.234375,0.55078125 -0.175781,0.15234375 -0.363281,0.234375 -0.574218,0.234375 H 82.97305 V -12.444875 h 7.136719 c 0.210937,0 0.398437,0.08203 0.574218,0.234375 0.152344,0.175781 0.234375,0.363281 0.234375,0.574219 0,0.210937 -0.08203,0.398437 -0.234375,0.550781 -0.175781,0.152344 -0.363281,0.234375 -0.574218,0.234375 z m 0,0"
       style="fill:#ffffff;fill-opacity:1;fill-rule:nonzero;stroke:none"
       aria-label="&gt;ARCHIVE"
       transform="matrix(1.3333333,0,0,1.3333333,13.244267,98.030667)" />
    <path
       id="path9"
       d="m 218.07,2252.59 h 76.68 l -97.305,-218.7 h -76.679 l 97.304,218.7"
       style="fill:#f5352b;fill-opacity:1;fill-rule:evenodd;stroke:none"
       transform="matrix(0.13333333,0,0,-0.13333333,0,317.33333)" />
    <path
       id="path10"
       d="m 294.75,2252.59 h 76.68 l -97.301,-218.7 h -76.684 l 97.305,218.7"
       style="fill:#f2c201;fill-opacity:1;fill-rule:evenodd;stroke:none"
       transform="matrix(0.13333333,0,0,-0.13333333,0,317.33333)" />
    <path
       id="path11"
       d="m 371.43,2252.59 h 76.679 l -97.3,-218.7 h -76.68 l 97.301,218.7"
       style="fill:#00881c;fill-opacity:1;fill-rule:evenodd;stroke:none"
       transform="matrix(0.13333333,0,0,-0.13333333,0,317.33333)" />
    <path
       id="path12"
       d="m 448.109,2252.59 h 76.68 l -97.301,-218.7 h -76.679 l 97.3,218.7"
       style="fill:#0184c3;fill-opacity:1;fill-rule:evenodd;stroke:none"
       transform="matrix(0.13333333,0,0,-0.13333333,0,317.33333)" />
    <path
       id="path13"
       d="m 1802.55,422.074 c -35.66,26.125 -107.82,246.332 -107.82,318.578 20.33,-14.902 43.06,-127.886 52.14,-158.605 7.69,-26.031 17.13,-58.777 26.24,-81.594 4.96,-12.445 9.74,-26.836 14.69,-39.211 4.85,-12.14 11.7,-26.062 14.75,-39.168 z m 333.28,558.731 c 0,25.585 -1.71,6.269 4.9,19.605 14.3,-5.773 5.13,-4.562 14.71,-24.504 26.7,14.125 23.29,14.699 63.71,14.699 -11.15,-15.222 -83.32,-53.855 -83.32,-9.8 z m -34.31,132.335 c -45.68,0 -70.82,34.31 -127.43,34.31 v 9.8 c 12.89,3.44 121.36,94.62 161.74,34.31 -6.24,-23.35 -13.53,-12.77 -21.2,-32.71 -6.29,-16.34 2.16,-45.71 -13.11,-45.71 z m -166.64,78.42 c 16.65,24.86 72.77,54.33 107.11,64.43 25.4,7.49 44.03,10.21 73.13,3.14 75.93,-18.45 54.72,-47.97 45.22,-47.97 -31.71,0 -29.36,24.51 -102.93,24.51 -45.98,0 -87.29,-35.9 -122.53,-44.11 z m -132.33,-122.53 c 0,-13.24 2.34,-13.51 4.9,-24.51 11.54,-2.69 14.48,-4.57 29.41,-4.9 4.71,17.67 0.44,13.11 19.6,14.7 29.68,-52.82 -51.62,-113.429 -100.23,-41.42 -13.69,20.28 -22.3,39.09 -22.3,70.83 -32.35,-0.72 -24.5,-5.76 -24.5,-39.21 56.59,-13.18 -13.64,-55.934 -21.46,-4.19 -1.49,9.85 5.55,28.88 6.76,43.4 -11.89,-2.77 -19.67,-5.12 -29.41,-9.8 1.25,-15.03 4.64,-23.56 9.8,-34.31 -13.12,4.75 -15.31,10.99 -19.6,29.41 -17.93,-4.79 -10.27,-5.17 -24.51,-14.71 6.12,-22.9 22.01,-37.14 34.99,-53.23 58.4,-72.379 60.85,-26 97.34,-25.184 -2.78,-33.379 -15.63,-46.234 -49.01,-49.011 0,-55.723 -4.42,-89.915 -27.29,-124.645 -13.66,-20.742 -16.03,-23.664 -33.05,-40.461 -35.06,-34.601 17.73,-82.676 -68.17,-162.191 -12.11,-11.211 -31.84,-22.7 -49.45,-28.969 -24.93,-8.879 -40.96,-6.422 -72,-6.422 5.99,-4.531 -5.5,-3.176 14.7,-4.898 v -14.704 c -20.94,-11.085 -16.81,-9.808 -44.11,-9.808 -22.77,0 3.78,6.773 -25.27,13.937 -7.62,1.875 -33.9,0.852 -43.32,0.789 -30.36,-0.195 -57.36,-0.929 -85.6,3.008 -46.21,6.446 -103.26,-18.004 -149.23,-23.082 -68.38,-7.547 -74.04,-1.945 -132.888,-43.551 -27.25,-19.273 -59.57,-69.562 -68.507,-107.933 16.41,10.988 28.199,22.621 43.378,35.035 38.427,31.434 112.767,75.414 159.217,90.746 103.75,34.242 303.69,28.813 429.03,-18.582 101.02,-38.195 264.93,-170.918 324.1,-170.918 76.17,0 62.54,154.789 19.61,186.246 -20.96,-15.351 -20.53,-49.222 -27.1,-75.828 -5.88,-23.789 3.25,-10.937 -12.11,-22.195 -7.69,92.394 -7.97,61.965 32.46,183.195 15.61,46.816 27.64,95.813 50.86,130.481 -44.9,23.757 -85.46,34.078 -121.41,69.738 -27.36,27.148 -69.74,70.195 -69.74,121.406 26.49,-19.41 28.54,-74.695 127.59,-132.176 41.33,-23.992 203.52,-85.199 257.86,-47.425 57.36,39.878 -12.86,115.738 -12.96,115.882 30.85,-7.183 52.92,-15.023 53.91,29.41 -56.83,13.243 -35.85,-4.898 -88.22,-4.898 v 14.703 c 21.99,1.828 33.34,7.5 49.1,14.613 17.16,7.754 35.15,8.184 48.92,14.793 -1.27,15.332 -4.9,17.411 -4.9,34.309 0,36.957 63.72,19.773 63.72,58.81 0,27.76 -20.82,69.99 -30.11,92.43 -11.72,28.33 -25.63,55.27 -28.51,94.01 -2.38,31.74 7.63,97.29 -9.66,112.88 -17.66,15.92 -104.33,19.26 -137.57,19.26 -13.37,0 -24.71,-17.25 -33.02,-25.79 -50.11,-51.46 -85.13,-29.6 -132.03,-117.94 -8.28,-15.6 -11.89,-28.16 -22.48,-41.23 -24.53,-30.22 -57.53,-34.82 -57.53,-69.9"
       style="fill:#ffffff;fill-opacity:1;fill-rule:evenodd;stroke:none"
       transform="matrix(0.13333333,0,0,-0.13333333,0,317.33333)" />
    <path
       id="path14"
       d="m 1454.57,1711.08 c -11.96,-22.61 -22.86,-34.24 -37.32,-55.81 -92.27,-137.7 -90.15,-336.13 31,-455.68 15,-14.8 10.27,-12.82 30.82,-8.03 -10.11,37.89 -44.23,37.35 -81.34,129.4 -21.92,54.35 -26.02,103.35 -14.81,157.9 l 7.94,21.47 c 0,-82.26 -3.22,-112.5 21.59,-174.46 11.54,-28.84 59.39,-114.71 86.23,-114.71 22.09,5.9 48.65,39.61 58.81,58.82 2.31,17.85 -69.85,80.65 15.8,165.54 23.02,22.81 46.8,27.18 68.89,48.74 64.86,63.3 114.49,99.41 168.28,179.7 22.18,33.11 65.61,119.14 65.61,169.65 -84.72,44.82 -214.44,33.78 -303.31,4.34 -35.88,-11.89 -87.93,-38.65 -114.42,-62.02 -21.74,-19.17 -25.66,-20.02 -44.54,-43.69 -86.62,-108.61 -123.74,-176.28 -116.12,-334.89 4.18,-87.15 63.46,-203.79 117.68,-240.1 l 19.6,14.7 c -17.75,33.56 -52.86,58.2 -76.44,114.7 -46.53,111.48 -35.48,206.14 9.8,314.64 10.87,26.05 56.1,101.74 86.25,109.79"
       style="fill:#ffffff;fill-opacity:1;fill-rule:evenodd;stroke:none"
       transform="matrix(0.13333333,0,0,-0.13333333,0,317.33333)" />
    <path
       id="path15"
       d="m 944.848,191.719 c 8.988,-13.422 24.117,-29.766 34.941,-43.477 14.793,-18.738 23.131,-26.543 39.791,-43.531 4.08,-4.164 7.64,-7.7188 10.9,-10.7462 h 198.57 c -14.28,61.7192 -3.3,146.6402 7.03,213.3162 4.75,30.594 7.74,40.442 7.74,75.582 -14.42,3.36 -14.96,4.903 -34.31,4.903 -4.24,-15.907 -6.48,-12.411 -16.26,-27.852 -26.84,-42.391 -70.41,-133.941 -83.21,-181.445 -6.18,-22.91 1.55,-23.91 -23.06,-25.957 1.92,85.898 99.42,230.011 102.93,245.058 -61.4,14.305 -69.59,-13.394 -150.75,-84.504 -47.613,-41.707 -66.875,-64.16 -94.312,-121.347 z M 1642.67,93.9648 c -22.4,62.2342 -122.83,171.6912 -167.25,216.6332 l -82.87,74.543 c -27.56,15.113 -24.91,-9.524 -55.61,-12.078 22.43,-33.497 45.82,-52.329 76.76,-109.489 16.57,-30.621 59.65,-93.535 60.47,-130.664 -19.01,5.074 -24.42,26.317 -40.83,57.18 -12.02,22.601 -25.89,40.687 -37.39,60.64 -42.22,73.297 -43.2,64.551 -78.61,117.43 -58.73,0 -38.81,3.336 -44.11,-9.801 -14.78,-5.964 -7.94,6.7 -15.59,-57.929 l -18.85,-177.196 c -2.81,-25.152 -3.89,-21.336 -9.49,-29.2692 h 413.37"
       style="fill:#ffffff;fill-opacity:1;fill-rule:evenodd;stroke:none"
       transform="matrix(0.13333333,0,0,-0.13333333,0,317.33333)" />
    <path
       id="path16"
       d="m 1660.42,1461.12 c 33.76,-7.87 80.31,-37.35 83.31,-73.52 62.25,5.19 67.34,19.61 181.35,19.61 60.49,0 123.14,-5.57 180.72,-15.33 9.91,-1.68 16.9,-2.63 29.02,-5.29 l 25.52,-8.79 c -106.95,0 -152.22,29.43 -320.09,6.41 -78.64,-10.78 -86.71,-5.07 -86.71,-40.72 52.41,0 90.22,19.61 210.75,19.61 65.24,0 127.8,-6.79 185.98,-14.97 48.58,-6.84 137.05,-24.24 176.71,-24.24 -14.2,21.2 -49.6,52.04 -69.85,72.29 l -164.7,158.77 c -9.32,7.35 -13.28,8.54 -21.14,18.07 -17.61,21.39 -11.98,21.16 -38.38,35.14 -63.84,-33.78 -31.16,-44.12 -156.84,-44.12 108.46,204.98 148.67,79.36 220.55,24.51 14.28,-10.9 40.98,-35.59 54.15,-48.78 29.63,-29.68 26.46,-46.63 58.58,-29.64 -5.49,20.57 -22.83,28.1 -35.04,43.38 -14.33,17.94 -20.95,24.87 -37.26,41.17 l -186.17,205.92 c -13.78,13.75 -21.86,31.05 -45.4,33.01 -1.39,-62.43 -57.05,-164.06 -94.51,-214.27 -44.6,-59.77 -64.58,-69.38 -112.52,-117.83 -31.92,-32.24 -31.73,-16.78 -38.03,-40.39"
       style="fill:#ffffff;fill-opacity:1;fill-rule:evenodd;stroke:none"
       transform="matrix(0.13333333,0,0,-0.13333333,0,317.33333)" />
    <path
       id="path17"
       d="m 886.031,275.039 c 8.129,-15.355 21.395,-44.254 39.215,-49.012 4.723,17.696 41.758,55.813 55.356,72.075 26.538,31.734 78.178,80.964 116.068,99.589 57.4,28.211 198.22,73.395 269.68,73.395 49.76,0 125.6,-20.34 162.42,-33.621 72.03,-25.977 139.9,-88.77 180.89,-113.188 66.34,-39.515 195.11,-155.218 257.71,-76.82 29.21,36.586 32.31,80.012 19.57,123.754 -1.41,4.844 -4.22,13.734 -6.25,18.246 -4.6,10.18 -5.96,11.543 -11.5,17.914 0,-47.266 -9.32,-127.433 -68.62,-127.433 -61.4,0 -82.07,24.746 -150.4,65.25 l -187.12,102.046 c -117.83,52.176 -197.81,47.621 -312.32,45.586 -51.94,-0.925 -165.61,-39.3 -202.27,-66.527 C 990.438,383.215 926.652,335.695 886.031,275.039"
       style="fill:#ffffff;fill-opacity:1;fill-rule:evenodd;stroke:none"
       transform="matrix(0.13333333,0,0,-0.13333333,0,317.33333)" />
    <path
       id="path18"
       d="m 1229.12,1456.22 c 0,-55.06 9.38,-93.38 19.6,-137.23 33.32,22.31 23.98,30.83 17.8,120.2 -5.81,83.83 26.82,169.66 65.71,237.39 81.29,141.57 231.44,218.93 396.09,217.35 58.35,-0.56 86.94,-17.27 133.05,-21.11 5.43,23.3 14.7,34.68 14.7,63.72 -23.56,0.52 -43.4,8.43 -65.78,12.64 -96.66,18.16 -205.04,-0.43 -287.05,-37.21 -176.88,-79.32 -294.12,-258.65 -294.12,-455.75"
       style="fill:#ffffff;fill-opacity:1;fill-rule:evenodd;stroke:none"
       transform="matrix(0.13333333,0,0,-0.13333333,0,317.33333)" />
    <path
       id="path19"
       d="m 1224.21,1882.62 -10.53,2.7 z m 93.13,29.4 -4.9,4.91 z m -4.9,4.91 -4.9,4.9 z m -4.9,4.9 -4.91,4.9 z m -4.91,4.9 -4.9,4.9 z m -4.9,4.9 -9.8,4.91 z m -9.8,4.91 -4.9,4.9 z m -63.72,-53.92 58.82,58.82 z m 0,0 c 33.72,-7.85 90.86,-45.79 117.63,-63.71 10.88,9.45 19.96,18.52 29.41,29.4 -15.23,22.75 -40.48,43.65 -53.91,63.71 18.91,-5.04 40.46,-33.44 63.71,-49 13.6,3.63 30.84,17.97 39.21,29.4 -10.39,19.64 -17.88,28.75 -31.5,46.92 l -70.79,86.05 c -12.67,16.05 -23.14,32.29 -39.84,43.47 -46.49,-31.13 -149.05,-151.38 -161.74,-205.84 52.96,-4.41 172.28,-91.84 186.24,-88.22 11.99,8.02 20.27,18.45 24.51,34.3 -8.26,11.28 -36.07,29.41 -49.95,38.28 -15.25,9.75 -44.1,23.13 -52.98,35.24"
       style="fill:#ffffff;fill-opacity:1;fill-rule:evenodd;stroke:none"
       transform="matrix(0.13333333,0,0,-0.13333333,0,317.33333)" />
    <path
       id="path20"
       d="m 1037.97,1559.14 107.37,24.97 c 54.2,10.68 71.1,-0.95 83.78,53.45 -30.44,14.6 -68.86,9.8 -112.73,9.8 l 68.62,9.8 c 27.2,0 29.06,-4.89 53.91,-4.89 4.69,20.14 13.1,29.71 14.7,49.01 l -147.03,29.4 c 20.9,13.27 115.54,-14.7 161.73,-14.7 4.85,18.15 14.7,23.05 19.61,44.11 -14.21,7.52 -29.64,12.37 -44.18,19.54 -15.5,7.63 -28.34,15.16 -46.07,22.54 -26.89,11.2 -68.79,30.72 -100.89,31.44 -6.33,-27.16 -26.31,-51.68 -40.53,-126.12 -7.77,-40.64 -18.29,-99.06 -18.29,-148.35"
       style="fill:#ffffff;fill-opacity:1;fill-rule:evenodd;stroke:none"
       transform="matrix(0.13333333,0,0,-0.13333333,0,317.33333)" />
    <path
       id="path21"
       d="m 1268.32,1269.98 c 0,-42.73 61.99,-174.4 -6.48,-302.3 -26.62,-49.742 -56.16,-62.52 -62.13,-84.895 39.3,-9.16 49.18,-49.031 78.42,-68.617 8.21,35.238 54.03,72.723 83.32,88.223 -7.5,32.152 -9.41,21.738 10.79,52.918 7.83,12.078 10.39,17.75 15.76,33.254 14.84,42.817 25.58,124.227 -10.47,160.257 -75.13,75.14 -78.91,135.55 -99.4,150.56 -5.1,-9.63 -9.81,-14.45 -9.81,-29.4"
       style="fill:#ffffff;fill-opacity:1;fill-rule:evenodd;stroke:none"
       transform="matrix(0.13333333,0,0,-0.13333333,0,317.33333)" />
    <path
       id="path22"
       d="m 1920.18,2078.67 -4.9,-4.9 z m 4.9,4.9 -4.9,-4.9 z m -73.52,24.5 73.52,-24.5 z m 0,0 -4.9,-9.8 z m -4.9,-9.8 4.9,9.8 z m 0,0 -25.1,-72.95 c -13.69,-40.01 -31.52,-44.68 25.1,-44.68 15.34,29 43.16,76.08 68.62,93.13 -4.87,-18.22 -19.79,-32.19 -30.46,-47.97 -12.66,-18.72 -18.07,-30.63 -28.36,-50.06 10.75,-5.15 19.29,-8.55 34.31,-9.8 12.86,19.2 23.71,41.33 38.39,59.63 8.41,10.49 14.16,14.05 23.25,25.76 57.1,73.51 125.68,82.87 134.41,115.56 -14.52,3.38 -71.61,38.61 -88.23,34.31 -21.25,-5.51 -85.8,-84.76 -101.8,-104.04 -10.75,-12.96 -19.48,-30.01 -30.52,-38.1 16.6,71.26 97.18,135.33 102.92,156.84 -18.82,9.03 -59.6,10.57 -78.42,19.6 -11.43,-21.6 -20.11,-34.17 -32.78,-55.44 -12.42,-20.84 -20.36,-36.27 -30.95,-57.26 -13.94,-27.63 -44.09,-98.17 -44.09,-137.26 27.6,7.37 26.68,41.58 47.25,85.08 3.34,7.06 3.42,7.52 6.55,13.06 l 9.91,14.59"
       style="fill:#ffffff;fill-opacity:1;fill-rule:evenodd;stroke:none"
       transform="matrix(0.13333333,0,0,-0.13333333,0,317.33333)" />
    <path
       id="path23"
       d="m 1464.37,2181.59 c 0,-30.58 35.01,-136.44 49.01,-171.54 7.39,-18.53 14.77,-38.04 19.61,-58.81 14.12,6.77 32.06,10.75 49.01,14.7 -3.52,42.27 -19.61,89.4 -19.61,132.33 l 3.17,-6.64 c 9.65,-25.17 -5.82,18.8 2.71,-7.09 l 23.53,-113.7 c 19.43,1.62 29.58,8.19 49.02,9.8 -21.66,92.96 -9.81,175.63 -9.81,254.86 -30.6,0 -166.64,-37.99 -166.64,-53.91"
       style="fill:#ffffff;fill-opacity:1;fill-rule:evenodd;stroke:none"
       transform="matrix(0.13333333,0,0,-0.13333333,0,317.33333)" />
    <path
       id="path24"
       d="m 1136,1225.86 c 0,-35.58 15.85,-64.93 30.06,-107.16 17.99,-53.49 18.95,-74.54 18.95,-132.993 0,-29.871 -9.17,-44.836 -14.71,-68.617 40.8,10.89 88.22,100.48 88.22,156.84 0,47.64 -1.4,123.05 -21.58,164.66 -5.87,12.11 -3.57,6.89 -7.82,11.78 l -14.71,-181.34 c 0,43.82 -2.34,94.27 -0.02,137.26 1.89,34.89 17.77,97.41 -9.78,117.6 -9.43,-40.45 -14.7,-61.66 -14.7,-112.73 h -4.9 c 0,58.53 -0.79,74.23 18.32,119.23 10.1,23.79 1.95,7.63 1.28,37.61 -25.94,-17.37 -68.61,-111.54 -68.61,-142.14"
       style="fill:#ffffff;fill-opacity:1;fill-rule:evenodd;stroke:none"
       transform="matrix(0.13333333,0,0,-0.13333333,0,317.33333)" />
    <path
       id="path25"
       d="m 1425.16,2024.75 4.9,-9.8 z m -4.9,9.8 4.9,-9.8 z m 9.8,-19.6 -9.8,19.6 z m 0,0 c 11.12,-8.14 39.93,-62.44 53.92,-83.32 18.16,4.23 13.7,8.09 34.31,9.81 -10.46,44.86 -49.27,110.74 -68.02,167.24 -7.16,21.58 -15.18,36.62 -20.21,58.21 -25.39,-2.12 -111.07,-57.89 -122.52,-73.52 28.31,-42.29 70.07,-94.07 96.45,-138.8 10.08,-17.07 26.29,-34.8 30.97,-52.34 l 39.21,19.6 -44.11,93.12"
       style="fill:#ffffff;fill-opacity:1;fill-rule:evenodd;stroke:none"
       transform="matrix(0.13333333,0,0,-0.13333333,0,317.33333)" />
    <path
       id="path26"
       d="m 1959.39,157.41 c 17.77,0 27.35,4.117 39.2,9.809 l 4.91,53.91 c 0,75.363 -11.41,-107.684 -218.43,16.824 -21.53,12.945 -36.41,22.965 -57.56,35.559 -23.83,14.195 -38.13,21.281 -60.1,37.922 -37.15,28.125 -69.87,51.105 -107.11,79.14 -39.84,29.989 -85.31,49.887 -140.04,51.106 15.17,-20.703 62.53,-19.746 123.79,-82.063 16.74,-17.031 35.96,-32.262 55.49,-47.433 10.95,-8.504 16.19,-14.11 25.45,-23.559 11.77,-12.008 14.26,-19.012 24.4,-29.516 17.41,-18.019 119.11,-50.8 144.74,-61.109 45.73,-18.398 103.89,-40.59 165.26,-40.59"
       style="fill:#ffffff;fill-opacity:1;fill-rule:evenodd;stroke:none"
       transform="matrix(0.13333333,0,0,-0.13333333,0,317.33333)" />
    <path
       id="path27"
       d="m 1463.05,1005.34 6.22,31.85 c 0,48.18 -9.04,71.08 -9.8,105.36 l -34.08,-10.5 c 1.99,-25.95 8.73,-61.57 7,-82.47 -3.87,-47.15 -12.13,-51.9 -12.13,-78.576 30.04,0 74.57,9.199 93.21,19.519 25.23,13.977 38.82,39.137 39.31,78.307 1.93,152.47 36.98,127.2 63.52,166.84 -17.7,1.47 -23.35,6.11 -39.2,9.8 -12.25,-18.29 -23.22,-31.99 -42.15,-46.08 -19.71,-14.66 -29.48,-31.09 -55.88,-37.24 5.94,-71.35 19.88,-68.1 1.56,-144.06 -4.63,-19.176 -2.57,-6.86 -1.58,-17.68 -17.82,3.07 -6.23,-2.207 -16,4.93"
       style="fill:#ffffff;fill-opacity:1;fill-rule:evenodd;stroke:none"
       transform="matrix(0.13333333,0,0,-0.13333333,0,317.33333)" />
    <path
       id="path28"
       d="m 1665.32,2240.41 c -18.13,-77.84 -14.71,-121.54 -14.71,-200.95 0,-27.21 4.91,-29.07 4.91,-53.92 h 24.5 c 0,37.66 -1.1,26.32 9.8,34.31 0,-25.61 -4.23,-34.31 19.61,-34.31 28.39,0 9.41,75.22 15.39,131.65 5.13,48.48 21.68,102.42 23.82,128.11 -27.18,0 -64,2.6 -83.32,-4.89"
       style="fill:#ffffff;fill-opacity:1;fill-rule:evenodd;stroke:none"
       transform="matrix(0.13333333,0,0,-0.13333333,0,317.33333)" />
    <path
       id="path29"
       d="m 1131.09,1490.53 -14.7,-9.8 z m 0,0 c 12.33,16.83 52.71,34.36 73.52,39.21 0.5,22.16 4.9,19.47 4.9,44.11 -30.78,-14.77 -88.55,-11.43 -166.63,-63.72 0,-36.53 1.51,-44.63 7.69,-75.61 5.45,-27.27 14.77,-46.97 16.81,-71.42 27.26,7.28 14.71,19.02 53.89,49.03 82,62.77 78.44,58.82 78.44,102.9 -32.26,-2.68 -41.91,-18.28 -68.62,-24.5"
       style="fill:#ffffff;fill-opacity:1;fill-rule:evenodd;stroke:none"
       transform="matrix(0.13333333,0,0,-0.13333333,0,317.33333)" />
    <path
       id="path30"
       d="m 1729.04,2039.46 v -53.92 c 46.37,0 26.63,-3.94 47.2,65.52 13.53,45.69 47.86,119.29 73.35,157.01 8.45,12.5 13.05,16.77 16.68,32.34 -83.51,0 -85.39,37.45 -118.74,-82.22 -9.58,-34.38 -18.49,-72.34 -18.49,-118.73"
       style="fill:#ffffff;fill-opacity:1;fill-rule:evenodd;stroke:none"
       transform="matrix(0.13333333,0,0,-0.13333333,0,317.33333)" />
    <path
       id="path31"
       d="m 1728.51,93.9648 c -17.03,31.0942 -33.76,56.2812 -56.75,84.5942 -36.19,44.562 -108.21,134.488 -154.28,164.289 -22.89,14.8 -81.43,48.757 -107.02,54.722 5.7,-15.738 60.06,-52.461 74.76,-67.371 l 42.56,-40.765 c 1,-1.004 3.86,-3.918 4.85,-4.95 0.69,-0.73 1.69,-1.781 2.38,-2.519 l 51.19,-61.543 c 47.66,-63.559 49.13,-63.996 79.18,-126.4572 h 63.13"
       style="fill:#ffffff;fill-opacity:1;fill-rule:evenodd;stroke:none"
       transform="matrix(0.13333333,0,0,-0.13333333,0,317.33333)" />
    <path
       id="path32"
       d="m 1425.16,676.934 14.33,-64.086 c 10.9,-21.434 0.39,-9.012 15.08,-14.332 -12.34,25.711 -11.18,92.355 28.14,118.898 28.45,19.211 81.15,27.785 115.67,46.059 85.29,45.14 112.6,165.484 57.14,202.632 0,-75.335 -2.02,-137.371 -79.89,-179.875 -54.24,-29.605 -150.47,-30.808 -150.47,-109.296"
       style="fill:#ffffff;fill-opacity:1;fill-rule:evenodd;stroke:none"
       transform="matrix(0.13333333,0,0,-0.13333333,0,317.33333)" />
    <path
       id="path33"
       d="m 1586.9,1343.49 c 0,90.88 107.83,72.76 107.83,14.71 0,-96.22 -107.83,-70.26 -107.83,-14.71 z m -29.41,9.81 c 0,-119.11 170.52,-113.16 170.52,-4.91 0,21.47 -12.13,44.79 -24.44,57.86 -60.75,64.54 -146.08,14.13 -146.08,-52.95"
       style="fill:#ffffff;fill-opacity:1;fill-rule:evenodd;stroke:none"
       transform="matrix(0.13333333,0,0,-0.13333333,0,317.33333)" />
    <path
       id="path34"
       d="m 1567.29,1118.04 c 0,-106.81 26.26,-161.739 -156.83,-161.739 -1.05,-1.977 -11.12,-18.879 -11.17,-19.059 -6.48,-20.707 6.55,-15.246 60.18,-15.246 63.82,0 123.86,40.922 135.39,94.954 6.47,30.3 0.2,82.26 1.75,115.88 0.77,16.63 5.35,35.42 10.4,48.42 7.34,18.88 14.09,18.21 19.1,39.71 -22.66,-1.88 -33.9,-18.32 -42.7,-35.71 -8.44,-16.68 -16.12,-43.75 -16.12,-67.21"
       style="fill:#ffffff;fill-opacity:1;fill-rule:evenodd;stroke:none"
       transform="matrix(0.13333333,0,0,-0.13333333,0,317.33333)" />
    <path
       id="path35"
       d="m 2047.61,93.9648 c -0.01,96.3632 -0.1,192.7302 0.18,289.0862 0.17,59.058 -44.54,115.613 -81.42,144.031 -19.84,15.289 -19.8,26.078 -46.19,32.227 0,-37.86 13.86,-26.973 55.96,-91.075 38.89,-59.218 46.16,-108.879 46.77,-178.683 0.25,-28.071 6.98,-46.281 9.34,-69.074 4.25,-40.973 0.93,-95.164 11.09,-126.5122 h 4.27"
       style="fill:#ffffff;fill-opacity:1;fill-rule:evenodd;stroke:none"
       transform="matrix(0.13333333,0,0,-0.13333333,0,317.33333)" />
    <path
       id="path36"
       d="m 1400.65,755.352 c 0,-51.618 14.82,-3.836 56.98,16.543 44.09,21.308 109.71,19.265 148.82,81.539 28.44,45.285 25.47,86.882 18.82,132.132 l -8.97,0.141 c -1.8,-21.738 -13.32,-68.684 -20.16,-87.652 -38.55,-106.883 -195.49,-82.633 -195.49,-142.703"
       style="fill:#ffffff;fill-opacity:1;fill-rule:evenodd;stroke:none"
       transform="matrix(0.13333333,0,0,-0.13333333,0,317.33333)" />
    <path
       id="path37"
       d="m 1086.98,1323.89 c 0,-20.31 19.73,-48.14 24.5,-68.62 l 65.77,110.68 c 22.75,32.6 22.46,-1.01 22.46,85.37 -34.55,-18.28 -112.73,-92.07 -112.73,-127.43"
       style="fill:#ffffff;fill-opacity:1;fill-rule:evenodd;stroke:none"
       transform="matrix(0.13333333,0,0,-0.13333333,0,317.33333)" />
    <path
       id="path38"
       d="m 1297.73,774.957 c 0,-14.621 -0.04,-18.457 2.36,-31.949 4.27,-23.93 -1.81,-16.492 12.35,-26.863 0,54.023 18.77,101.835 63.76,127.375 19.66,11.16 46,17.269 69.14,23.98 12.94,3.758 26,6.379 38.15,10.871 14.12,5.227 19.24,9.859 29.89,19.117 -79.06,-1.761 -215.65,-22.043 -215.65,-122.531"
       style="fill:#ffffff;fill-opacity:1;fill-rule:evenodd;stroke:none"
       transform="matrix(0.13333333,0,0,-0.13333333,0,317.33333)" />
    <path
       id="path39"
       d="m 1336.94,711.242 c 27.44,20.11 10.47,80.664 114.48,115.867 41.4,14.012 125.68,26.645 125.68,104.688 -20.17,-13.504 -24.62,-32.41 -55.21,-57.52 -71.53,-58.711 -184.95,-3.562 -184.95,-163.035"
       style="fill:#ffffff;fill-opacity:1;fill-rule:evenodd;stroke:none"
       transform="matrix(0.13333333,0,0,-0.13333333,0,317.33333)" />
    <path
       id="path40"
       d="m 1684.92,1216.06 c -22.48,0 -39.68,-10.58 -49.01,-24.5 105.17,0 106.14,-43.82 192.98,-1.84 20.33,9.82 31.05,19.38 42.27,36.14 -158.53,-36.93 -62.41,-9.8 -186.24,-9.8"
       style="fill:#ffffff;fill-opacity:1;fill-rule:evenodd;stroke:none"
       transform="matrix(0.13333333,0,0,-0.13333333,0,317.33333)" />
    <path
       id="path41"
       d="m 1626.11,1142.55 c 29.72,-2.48 110.72,-49.36 181.35,-9.81 15.31,8.57 24.74,14.3 29.4,34.31 -33,-7.68 -31.05,-19.6 -78.42,-19.6 -53.9,0 -118.33,47.53 -132.33,-4.9"
       style="fill:#ffffff;fill-opacity:1;fill-rule:evenodd;stroke:none"
       transform="matrix(0.13333333,0,0,-0.13333333,0,317.33333)" />
    <path
       id="path42"
       d="m 1483.98,618.125 v -24.508 c 72.68,16.934 127.43,41.563 127.43,137.231 -54.73,-4.551 -25.48,-58.547 -82.12,-94.321 -13.02,-8.226 -27.64,-16.937 -45.31,-18.402"
       style="fill:#ffffff;fill-opacity:1;fill-rule:evenodd;stroke:none"
       transform="matrix(0.13333333,0,0,-0.13333333,0,317.33333)" />
    <path
       id="path43"
       d="m 1606.5,1358.2 c 0,-58.74 68.62,-59.92 68.62,-4.9 0,50.45 -68.62,37.12 -68.62,4.9"
       style="fill:#ffffff;fill-opacity:1;fill-rule:evenodd;stroke:none"
       transform="matrix(0.13333333,0,0,-0.13333333,0,317.33333)" />
    <path
       id="path44"
       d="m 1805.16,93.9648 c -24.1,30.7692 -97.91,112.7072 -115.34,117.3592 l 69.06,-117.3592 h 46.28"
       style="fill:#ffffff;fill-opacity:1;fill-rule:evenodd;stroke:none"
       transform="matrix(0.13333333,0,0,-0.13333333,0,317.33333)" />
    <path
       id="path45"
       d="m 1689.82,1240.57 117.63,-4.9 c 28.09,0 35.05,7.83 58.82,9.8 v 9.8 c -39.88,0 -146.05,30.68 -176.45,-14.7"
       style="fill:#ffffff;fill-opacity:1;fill-rule:evenodd;stroke:none"
       transform="matrix(0.13333333,0,0,-0.13333333,0,317.33333)" />
    <path
       id="path46"
       d="m 2047.61,480.891 c 0,54.339 6.11,53.937 -31.42,76.406 -20.64,12.351 -47.6,30.777 -76.4,31.418 10.95,-16.367 41.24,-33.527 57.77,-50.043 19.3,-19.274 29.13,-43.777 50.05,-57.781"
       style="fill:#ffffff;fill-opacity:1;fill-rule:evenodd;stroke:none"
       transform="matrix(0.13333333,0,0,-0.13333333,0,317.33333)" />
    <path
       id="path47"
       d="m 1861.37,1265.07 c 36.27,0 56.15,4.17 81.82,16.21 19.76,9.27 49.87,26.76 55.4,47.51 -45.62,0 -28.71,0.93 -53.91,-19.6 -14.28,-11.64 -31.91,-17.9 -49.02,-24.49 -17.45,-6.72 -23.88,-5.41 -34.29,-19.63"
       style="fill:#ffffff;fill-opacity:1;fill-rule:evenodd;stroke:none"
       transform="matrix(0.13333333,0,0,-0.13333333,0,317.33333)" />
    <path
       id="path48"
       d="m 1797.65,1289.58 c 42.86,0 77.08,4.31 111.39,20.94 15.46,7.48 16.63,7.03 20.94,23.17 -23.9,-1.99 -55.35,-6.39 -73.5,-14.71 l -58.83,-29.4"
       style="fill:#ffffff;fill-opacity:1;fill-rule:evenodd;stroke:none"
       transform="matrix(0.13333333,0,0,-0.13333333,0,317.33333)" />
    <path
       id="path49"
       d="m 1488.88,696.539 c -0.48,-21.324 -4.9,-26.734 -4.9,-53.914 18.96,10.039 22.81,9.152 38.17,25.543 10.9,11.617 21.57,26.051 25.54,43.074 -28.28,-0.629 -37.82,-9.812 -58.81,-14.703"
       style="fill:#ffffff;fill-opacity:1;fill-rule:evenodd;stroke:none"
       transform="matrix(0.13333333,0,0,-0.13333333,0,317.33333)" />
    <path
       id="path50"
       d="m 1807.45,1010.22 h 24.51 v 14.69 c -41.38,-9.63 -53.92,18.38 -53.92,63.72 -15.14,-3.53 -30.84,-5.75 -13.01,-47.31 7.36,-17.17 20,-31.1 42.42,-31.1"
       style="fill:#ffffff;fill-opacity:1;fill-rule:evenodd;stroke:none"
       transform="matrix(0.13333333,0,0,-0.13333333,0,317.33333)" />
    <path
       id="path51"
       d="m 2013.3,1162.15 c 30,0.67 50.49,19.6 102.93,19.6 -4.04,15.12 -0.79,14.71 -24.51,14.71 -25.63,0 -64.82,-14 -78.42,-34.31"
       style="fill:#ffffff;fill-opacity:1;fill-rule:evenodd;stroke:none"
       transform="matrix(0.13333333,0,0,-0.13333333,0,317.33333)" />
    <path
       id="path52"
       d="m 2037.81,1152.35 c 9.5,-12.98 23.49,-17.89 44.11,-19.61 0,38.71 -2.04,15.42 4.9,29.41 -19.78,-0.44 -32.31,-5.91 -49.01,-9.8"
       style="fill:#ffffff;fill-opacity:1;fill-rule:evenodd;stroke:none"
       transform="matrix(0.13333333,0,0,-0.13333333,0,317.33333)" />
    <path
       id="path53"
       d="m 1626.11,1083.73 c 12.01,8.04 21.22,12.29 29.41,24.51 -13.01,6.24 -5.25,4.47 -24.51,4.9 -2.69,-11.54 -4.57,-14.48 -4.9,-29.41"
       style="fill:#ffffff;fill-opacity:1;fill-rule:evenodd;stroke:none"
       transform="matrix(0.13333333,0,0,-0.13333333,0,317.33333)" />
    <path
       id="path54"
       d="m 1787.85,167.219 v 4.898 l -5.72,-4.086 z"
       style="fill:#ffffff;fill-opacity:1;fill-rule:evenodd;stroke:none"
       transform="matrix(0.13333333,0,0,-0.13333333,0,317.33333)" />
    <path
       id="path55"
       d="m 1993.7,279.938 1.46,1.464 c -0.1,-0.093 -1.95,-0.972 -1.46,-1.464"
       style="fill:#ffffff;fill-opacity:1;fill-rule:evenodd;stroke:none"
       transform="matrix(0.13333333,0,0,-0.13333333,0,317.33333)" />
  </g>
</svg>
